<?xml version="1.0" standalone="no"?>
<!DOCTYPE svg PUBLIC "-//W3C//DTD SVG 20010904//EN"
 "http://www.w3.org/TR/2001/REC-SVG-20010904/DTD/svg10.dtd">
<svg version="1.0" xmlns="http://www.w3.org/2000/svg"
 width="1079.000000pt" height="1079.000000pt" viewBox="0 0 1079.000000 1079.000000"
 preserveAspectRatio="xMidYMid meet">
<metadata>
Created by potrace 1.14, written by Peter Selinger 2001-2017
</metadata>
<g transform="translate(0.000000,1079.000000) scale(0.100000,-0.100000)"
fill="#000000" stroke="none">
<path d="M1868 8528 l-3 -1373 -380 0 c-209 0 -385 -3 -390 -7 -12 -7 -14
-3502 -2 -3514 4 -4 179 -8 390 -8 l382 -1 3 -587 2 -588 -392 0 -393 0 1
-382 c1 -211 2 -388 3 -393 1 -7 134 -10 389 -10 l387 0 3 393 2 392 588 -2
587 -3 1 -382 c0 -211 4 -386 8 -390 4 -5 1064 -8 2354 -8 l2347 0 0 392 -1
393 588 0 588 0 2 -392 3 -393 390 0 390 0 0 390 0 390 -392 3 -393 2 0 588 0
589 378 -1 c207 -1 384 2 392 6 14 6 16 186 14 1760 0 964 -2 1755 -3 1758 0
3 -175 5 -388 5 l-388 0 -3 1373 -2 1372 -588 0 -588 0 1 -386 c0 -212 -4
-388 -8 -391 -5 -3 -182 -5 -393 -5 l-384 1 0 -393 0 -393 -1570 0 -1570 0 0
393 0 393 -385 0 c-211 -1 -388 1 -392 4 -4 3 -8 179 -7 391 l1 386 -589 0
-588 0 -2 -1372z m1169 -201 c6 -4 9 -149 8 -379 0 -205 2 -380 6 -388 6 -13
37 -15 197 -14 l191 1 0 -380 c0 -208 3 -382 6 -386 8 -7 775 -9 776 -1 1 3 2
176 3 385 l1 380 370 2 c204 1 380 0 393 -3 l22 -4 0 -383 0 -382 390 0 c215
0 390 2 391 5 0 3 1 176 2 385 l2 380 391 1 391 1 0 -379 c0 -208 3 -382 7
-386 4 -4 181 -7 392 -7 377 0 384 0 385 20 0 11 1 185 1 386 l1 366 176 1
c97 0 185 0 196 1 20 1 20 8 19 378 -1 208 0 385 2 393 3 13 31 15 186 13 101
-1 188 -2 194 -2 8 -1 11 -274 12 -953 0 -524 1 -965 1 -980 l1 -26 388 0 387
1 3 -982 2 -981 -390 0 c-364 0 -390 -1 -391 -17 0 -10 -1 -273 -1 -585 -1
-511 -3 -567 -17 -570 -9 -2 -274 -4 -588 -3 l-573 0 0 -392 0 -393 -588 0
-589 0 0 589 0 588 181 1 c100 0 188 1 196 1 13 1 15 49 15 391 l0 390 -785 0
-785 0 0 -390 c0 -383 0 -390 20 -391 11 0 100 -1 198 -1 l177 -1 0 -588 0
-589 -590 0 -590 0 0 393 0 392 -587 0 -588 0 0 585 0 585 -393 3 -392 2 0
980 0 980 23 1 c12 0 187 1 390 1 202 0 368 3 368 7 1 3 2 442 3 975 1 905 2
969 18 975 22 8 352 6 365 -2z"/>
<path d="M3440 5953 c-3 -197 1 -747 6 -752 3 -3 179 -6 390 -6 334 0 384 2
385 15 3 45 4 747 1 758 -3 9 -91 12 -393 12 l-389 0 0 -27z"/>
<path d="M6579 5953 c-1 -38 -1 -735 0 -748 1 -6 138 -10 391 -10 340 0 390 2
391 15 1 21 1 731 0 753 -1 16 -27 17 -391 17 l-390 0 -1 -27z"/>
<path d="M2278 1662 c-15 -3 -16 -41 -16 -393 l0 -389 392 0 393 0 0 393 0
392 -377 0 c-206 0 -383 -1 -392 -3z"/>
<path d="M7762 1655 c-4 -5 -7 -182 -7 -392 l0 -383 392 0 393 0 0 393 0 392
-386 0 c-249 0 -388 -3 -392 -10z"/>
</g>
</svg>
